# xmcd CD database file
#
# Track frame offsets:
#	150
#	19262
#	38140
#	64227
#	83220
#	105892
#	125237
#	152852
#	174765
#	194372
#
# Disc length: 2641 seconds
#
# Revision: 1
# Processed by: cddbd v1.5.2PL0 Copyright (c) Steve Scherf et al.
# Submitted via: CDex 1.70beta2
#
DISCID=7d0a4f0a
DTITLE=ウォン・ウィンツァン  黃永燦 - Fragrance  香氣
DYEAR=1900
DGENRE=Sonata
TTITLE0=Fragrance  香氣
TTITLE1=Asian Sea  香水海
TTITLE2=ドービル海岸  Dowille Coast 多維爾海岸
TTITLE3=遥か地上を離れて   遠方
TTITLE4=Lost Days
TTITLE5=窓枠の空   深深深窗
TTITLE6=最上階への階段  無盡處
TTITLE7=Indian Summer<Fuyu No Hidamari> 小春日和
TTITLE8=Cloudy Sky  雲天
TTITLE9=A Little(Epilogue)  就那麼一點
EXTD=
EXTT0=
EXTT1=
EXTT2=
EXTT3=
EXTT4=
EXTT5=
EXTT6=
EXTT7=
EXTT8=
EXTT9=
PLAYORDER=
